<svg width="83" height="73" viewBox="0 0 83 73" fill="none" xmlns="http://www.w3.org/2000/svg">
<path fill-rule="evenodd" clip-rule="evenodd" d="M1.8501 12.401H61.7984V19.4294C61.385 19.4294 61.1783 19.2227 60.7648 19.2227C57.8708 19.2227 55.5969 21.7033 55.5969 24.5974V49.4036H1.8501V12.401V12.401Z" stroke="#8C8C94" stroke-width="2.26957" stroke-miterlimit="22.9256" stroke-linecap="round" stroke-linejoin="round"/>
<path fill-rule="evenodd" clip-rule="evenodd" d="M1.8501 49.4036H55.5969V53.9514C53.7364 55.3984 52.4961 57.6723 52.4961 60.1529C52.4961 64.494 56.217 68.2149 60.5581 68.2149C60.9715 68.2149 61.385 68.0082 61.7984 68.0082V71.3157H1.8501V49.4036V49.4036Z" stroke="#8C8C94" stroke-width="2.26957" stroke-miterlimit="22.9256" stroke-linecap="round" stroke-linejoin="round"/>
<path d="M16.3204 14.4681H4.74414V47.3364H16.3204V14.4681Z" stroke="#8C8C94" stroke-width="1.0087" stroke-miterlimit="22.9256" stroke-linecap="round" stroke-linejoin="round"/>
<path d="M30.9974 14.4681H18.1809V47.3364H30.9974V14.4681Z" stroke="#8C8C94" stroke-width="1.0087" stroke-miterlimit="22.9256" stroke-linecap="round" stroke-linejoin="round"/>
<path d="M45.4677 14.4681H32.6511V47.3364H45.4677V14.4681Z" stroke="#8C8C94" stroke-width="1.0087" stroke-miterlimit="22.9256" stroke-linecap="round" stroke-linejoin="round"/>
<path fill-rule="evenodd" clip-rule="evenodd" d="M47.3281 14.4681H60.1447V19.4294C57.4573 19.6361 55.5969 21.91 55.5969 24.5973V47.3364H47.3281V14.4681V14.4681Z" stroke="#8C8C94" stroke-width="1.0087" stroke-miterlimit="22.9256" stroke-linecap="round" stroke-linejoin="round"/>
<path d="M9.08521 54.5715V65.941" stroke="#8C8C94" stroke-width="1.0087" stroke-miterlimit="22.9256" stroke-linecap="round" stroke-linejoin="round"/>
<path d="M15.907 54.5715V65.941" stroke="#8C8C94" stroke-width="1.0087" stroke-miterlimit="22.9256" stroke-linecap="round" stroke-linejoin="round"/>
<path d="M22.3152 54.5715V65.941" stroke="#8C8C94" stroke-width="1.0087" stroke-miterlimit="22.9256" stroke-linecap="round" stroke-linejoin="round"/>
<path d="M29.137 54.5715V65.941" stroke="#8C8C94" stroke-width="1.0087" stroke-miterlimit="22.9256" stroke-linecap="round" stroke-linejoin="round"/>
<path d="M35.5452 54.5715V65.941" stroke="#8C8C94" stroke-width="1.0087" stroke-miterlimit="22.9256" stroke-linecap="round" stroke-linejoin="round"/>
<path d="M42.3668 54.5715V65.941" stroke="#8C8C94" stroke-width="1.0087" stroke-miterlimit="22.9256" stroke-linecap="round" stroke-linejoin="round"/>
<path d="M48.7751 54.5715V65.941" stroke="#8C8C94" stroke-width="1.0087" stroke-miterlimit="22.9256" stroke-linecap="round" stroke-linejoin="round"/>
<path fill-rule="evenodd" clip-rule="evenodd" d="M65.9328 54.1582C67.5865 55.6052 68.6201 57.6724 68.6201 60.153C68.6201 64.4941 65.1059 68.215 60.5581 68.215C56.217 68.215 52.4961 64.4941 52.4961 60.153C52.4961 57.6724 53.7364 55.3985 55.5969 53.9515V24.5975C55.5969 21.7034 57.8708 19.2228 60.7648 19.2228C63.6589 19.2228 65.9328 21.7034 65.9328 24.5975V54.1582V54.1582Z" stroke="#8C8C94" stroke-width="2.26957" stroke-miterlimit="22.9256" stroke-linecap="round" stroke-linejoin="round"/>
<path fill-rule="evenodd" clip-rule="evenodd" d="M60.7647 24.3906C61.7983 24.3906 62.6252 25.4242 62.6252 26.4578V57.0521C63.6588 57.6723 64.4857 58.9126 64.4857 60.3596C64.4857 62.4268 62.8319 64.2873 60.558 64.2873C58.4908 64.2873 56.6304 62.4268 56.6304 60.3596C56.6304 58.7059 57.4572 57.4656 58.9043 56.8454V26.4578C58.9043 25.4242 59.7311 24.3906 60.7647 24.3906V24.3906Z" stroke="#8C8C94" stroke-width="2.26957" stroke-miterlimit="22.9256" stroke-linecap="round" stroke-linejoin="round"/>
<path fill-rule="evenodd" clip-rule="evenodd" d="M62.6252 27.6982V57.0522C63.6588 57.6724 64.4857 58.9127 64.4857 60.3597C64.4857 62.4269 62.8319 64.2874 60.558 64.2874C58.4908 64.2874 56.6304 62.4269 56.6304 60.3597C56.6304 58.706 57.4572 57.4657 58.9043 56.8455V27.6982H62.6252Z" fill="#9494A8" stroke="#8C8C94" stroke-width="2.26957" stroke-miterlimit="22.9256" stroke-linecap="round" stroke-linejoin="round"/>
<path fill-rule="evenodd" clip-rule="evenodd" d="M75.4419 37.8274V41.755V37.8274ZM75.4419 48.7835V52.9178V48.7835Z" stroke="#8C8C94" stroke-width="2.26957" stroke-miterlimit="22.9256" stroke-linecap="round" stroke-linejoin="round"/>
<path fill-rule="evenodd" clip-rule="evenodd" d="M81.85 49.1969L78.3358 47.1297L81.85 49.1969ZM72.341 43.6155L68.8268 41.5483L72.341 43.6155Z" stroke="#8C8C94" stroke-width="2.26957" stroke-miterlimit="22.9256" stroke-linecap="round" stroke-linejoin="round"/>
<path d="M78.3358 43.6155L81.85 41.5483M68.8268 49.1969L72.341 47.1297L68.8268 49.1969Z" stroke="#8C8C94" stroke-width="2.26957" stroke-miterlimit="22.9256" stroke-linecap="round" stroke-linejoin="round"/>
<path d="M75.4418 48.7834C77.3827 48.7834 78.956 47.2101 78.956 45.2692C78.956 43.3284 77.3827 41.755 75.4418 41.755C73.501 41.755 71.9276 43.3284 71.9276 45.2692C71.9276 47.2101 73.501 48.7834 75.4418 48.7834Z" stroke="#8C8C94" stroke-width="2.26957" stroke-miterlimit="22.9256" stroke-linecap="round" stroke-linejoin="round"/>
<path fill-rule="evenodd" clip-rule="evenodd" d="M7.22484 1.8584H56.4238C57.2507 3.92558 61.7985 12.1943 61.7985 12.401L2.05688 12.1943L7.22484 1.8584V1.8584Z" stroke="#8C8C94" stroke-width="2.26957" stroke-miterlimit="22.9256" stroke-linecap="round" stroke-linejoin="round"/>
<path d="M11.7726 4.75244L9.29199 9.09353" stroke="#8C8C94" stroke-width="1.0087" stroke-miterlimit="22.9256" stroke-linecap="round" stroke-linejoin="round"/>
<path d="M17.9741 4.95923L16.9406 8.88688" stroke="#8C8C94" stroke-width="1.0087" stroke-miterlimit="22.9256" stroke-linecap="round" stroke-linejoin="round"/>
<path d="M24.7958 4.95923L24.3823 8.88688" stroke="#8C8C94" stroke-width="1.0087" stroke-miterlimit="22.9256" stroke-linecap="round" stroke-linejoin="round"/>
<path d="M31.8242 4.75244V9.09353" stroke="#8C8C94" stroke-width="1.0087" stroke-miterlimit="22.9256" stroke-linecap="round" stroke-linejoin="round"/>
<path d="M45.6743 4.95916L46.7079 8.88681M51.8759 4.75244L54.3565 9.09353L51.8759 4.75244ZM31.8242 4.75244V9.09353V4.75244ZM38.8526 4.95916L39.2661 8.88681L38.8526 4.95916Z" stroke="#8C8C94" stroke-width="1.0087" stroke-miterlimit="22.9256" stroke-linecap="round" stroke-linejoin="round"/>
</svg>
