<svg width="83" height="73" viewBox="0 0 83 73" fill="none" xmlns="http://www.w3.org/2000/svg">
<path fill-rule="evenodd" clip-rule="evenodd" d="M1.81372 12.3129H61.8137V19.3583C61.5865 19.3583 61.1319 19.3583 60.6774 19.3583C57.9501 19.3583 55.4501 21.631 55.4501 24.5856V49.5856H1.81372V12.3129V12.3129Z" stroke="#9494A8" stroke-width="2.21656" stroke-miterlimit="22.9256" stroke-linecap="round" stroke-linejoin="round"/>
<path fill-rule="evenodd" clip-rule="evenodd" d="M1.81372 49.5857H55.4501V53.9039C53.6319 55.2675 52.4955 57.5402 52.4955 60.0402C52.4955 64.5857 56.1319 68.2221 60.6774 68.2221C61.1319 68.2221 61.3592 68.2221 61.8137 67.9948V71.4039H1.81372V49.5857V49.5857Z" stroke="#9494A8" stroke-width="2.21656" stroke-miterlimit="22.9256" stroke-linecap="round" stroke-linejoin="round"/>
<path d="M16.3592 14.5857H4.54102V47.5402H16.3592V14.5857Z" stroke="#9494A8" stroke-width="1.10828" stroke-miterlimit="22.9256" stroke-linecap="round" stroke-linejoin="round"/>
<path d="M30.9047 14.5857H17.9502V47.5402H30.9047V14.5857Z" stroke="#9494A8" stroke-width="1.10828" stroke-miterlimit="22.9256" stroke-linecap="round" stroke-linejoin="round"/>
<path d="M45.6773 14.5857H32.7228V47.5402H45.6773V14.5857Z" stroke="#9494A8" stroke-width="1.10828" stroke-miterlimit="22.9256" stroke-linecap="round" stroke-linejoin="round"/>
<path fill-rule="evenodd" clip-rule="evenodd" d="M47.2682 14.5857H59.9955V19.3584C57.4955 19.5857 55.45 21.8584 55.45 24.5857V47.5402H47.2682V14.5857V14.5857Z" stroke="#9494A8" stroke-width="1.10828" stroke-miterlimit="22.9256" stroke-linecap="round" stroke-linejoin="round"/>
<path d="M8.85901 54.5857V65.9493" stroke="#9494A8" stroke-width="1.10828" stroke-miterlimit="22.9256" stroke-linecap="round" stroke-linejoin="round"/>
<path d="M15.6772 54.5857V65.9493" stroke="#9494A8" stroke-width="1.10828" stroke-miterlimit="22.9256" stroke-linecap="round" stroke-linejoin="round"/>
<path d="M22.2682 54.5857V65.9493" stroke="#9494A8" stroke-width="1.10828" stroke-miterlimit="22.9256" stroke-linecap="round" stroke-linejoin="round"/>
<path d="M29.0864 54.5857V65.9493" stroke="#9494A8" stroke-width="1.10828" stroke-miterlimit="22.9256" stroke-linecap="round" stroke-linejoin="round"/>
<path d="M35.4501 54.5857V65.9493" stroke="#9494A8" stroke-width="1.10828" stroke-miterlimit="22.9256" stroke-linecap="round" stroke-linejoin="round"/>
<path d="M42.2682 54.5857V65.9493" stroke="#9494A8" stroke-width="1.10828" stroke-miterlimit="22.9256" stroke-linecap="round" stroke-linejoin="round"/>
<path d="M48.632 54.5857V65.9493" stroke="#9494A8" stroke-width="1.10828" stroke-miterlimit="22.9256" stroke-linecap="round" stroke-linejoin="round"/>
<path fill-rule="evenodd" clip-rule="evenodd" d="M65.9046 54.1311C67.7228 55.722 68.6318 57.7675 68.6318 60.0402C68.6318 64.5857 64.9955 68.222 60.6773 68.222C56.1319 68.222 52.4955 64.5857 52.4955 60.0402C52.4955 57.5402 53.6318 55.2675 55.45 53.9039V24.5857C55.45 21.6311 57.95 19.3584 60.6773 19.3584C63.6319 19.3584 65.9046 21.6311 65.9046 24.5857V54.1311Z" stroke="#9494A8" stroke-width="2.21656" stroke-miterlimit="22.9256" stroke-linecap="round" stroke-linejoin="round"/>
<path fill-rule="evenodd" clip-rule="evenodd" d="M60.6773 24.3584C61.8137 24.3584 62.7228 25.2675 62.7228 26.4039V57.0857C63.8592 57.7675 64.541 58.9039 64.541 60.2675C64.541 62.5402 62.7228 64.3584 60.6773 64.3584C58.4046 64.3584 56.5864 62.5402 56.5864 60.2675C56.5864 58.9039 57.4955 57.5402 58.8592 56.8584V26.4039C58.8592 25.2675 59.7682 24.3584 60.6773 24.3584V24.3584Z" stroke="#9494A8" stroke-width="2.21656" stroke-miterlimit="22.9256" stroke-linecap="round" stroke-linejoin="round"/>
<path fill-rule="evenodd" clip-rule="evenodd" d="M62.7228 51.4039V57.0857C63.8592 57.7676 64.541 58.9039 64.541 60.2676C64.541 62.5403 62.7228 64.3585 60.6773 64.3585C58.4046 64.3585 56.5864 62.5403 56.5864 60.2676C56.5864 58.9039 57.4955 57.5403 58.8592 56.8585V51.4039H62.7228Z" fill="#9494A8" stroke="#9494A8" stroke-width="2.21656" stroke-miterlimit="22.9256" stroke-linecap="round" stroke-linejoin="round"/>
<path d="M75.4502 37.7676V52.9949" stroke="#9494A8" stroke-width="2.21656" stroke-miterlimit="22.9256" stroke-linecap="round" stroke-linejoin="round"/>
<path d="M81.8138 49.1311L68.8593 41.6311" stroke="#9494A8" stroke-width="2.21656" stroke-miterlimit="22.9256" stroke-linecap="round" stroke-linejoin="round"/>
<path d="M68.8593 49.1311L81.8138 41.6311" stroke="#9494A8" stroke-width="2.21656" stroke-miterlimit="22.9256" stroke-linecap="round" stroke-linejoin="round"/>
<path fill-rule="evenodd" clip-rule="evenodd" d="M7.49571 1.8584H56.5866C57.4957 3.90385 62.0412 12.0857 62.0412 12.3129L2.26843 12.0857L7.49571 1.8584V1.8584Z" stroke="#9494A8" stroke-width="2.21656" stroke-miterlimit="22.9256" stroke-linecap="round" stroke-linejoin="round"/>
<path d="M11.8137 4.58569L9.54102 8.90388" stroke="#9494A8" stroke-width="1.10828" stroke-miterlimit="22.9256" stroke-linecap="round" stroke-linejoin="round"/>
<path d="M18.1775 4.81299L17.2684 8.9039" stroke="#9494A8" stroke-width="1.10828" stroke-miterlimit="22.9256" stroke-linecap="round" stroke-linejoin="round"/>
<path d="M24.9956 4.81299L24.541 8.9039" stroke="#9494A8" stroke-width="1.10828" stroke-miterlimit="22.9256" stroke-linecap="round" stroke-linejoin="round"/>
<path d="M32.041 4.81299V8.9039" stroke="#9494A8" stroke-width="1.10828" stroke-miterlimit="22.9256" stroke-linecap="round" stroke-linejoin="round"/>
<path d="M45.9047 4.81297L46.8137 8.90388M52.2683 4.58569L54.541 8.90388L52.2683 4.58569ZM32.041 4.81297V8.90388V4.81297ZM39.0865 4.81297L39.541 8.90388L39.0865 4.81297Z" stroke="#9494A8" stroke-width="1.10828" stroke-miterlimit="22.9256" stroke-linecap="round" stroke-linejoin="round"/>
</svg>
