<svg width="69" height="74" viewBox="0 0 69 74" fill="none" xmlns="http://www.w3.org/2000/svg">
<path fill-rule="evenodd" clip-rule="evenodd" d="M2.25 12.0142H66.8512V23.3705V71.5886H44.5199V71.4025H2.25V12.0142Z" stroke="#9494A8" stroke-width="2.97619" stroke-miterlimit="22.9256" stroke-linecap="round" stroke-linejoin="round"/>
<path d="M18.0015 14.2482H5.24072V45.3386H18.0015V14.2482Z" stroke="#9494A8" stroke-width="1.4881" stroke-miterlimit="22.9256" stroke-linecap="round" stroke-linejoin="round"/>
<path d="M33.3542 14.2482H19.5966V45.3386H33.3542V14.2482Z" stroke="#9494A8" stroke-width="1.4881" stroke-miterlimit="22.9256" stroke-linecap="round" stroke-linejoin="round"/>
<path d="M49.3052 14.2482H35.5475V45.3386H49.3052V14.2482Z" stroke="#9494A8" stroke-width="1.4881" stroke-miterlimit="22.9256" stroke-linecap="round" stroke-linejoin="round"/>
<path d="M64.0598 14.2482H51.2991V45.3386H64.0598V14.2482Z" stroke="#9494A8" stroke-width="1.4881" stroke-miterlimit="22.9256" stroke-linecap="round" stroke-linejoin="round"/>
<path d="M18.0015 47.0142H5.24072V68.6099H18.0015V47.0142Z" stroke="#9494A8" stroke-width="1.4881" stroke-miterlimit="22.9256" stroke-linecap="round" stroke-linejoin="round"/>
<path d="M33.3542 47.0142H19.5966V68.6099H33.3542V47.0142Z" stroke="#9494A8" stroke-width="1.4881" stroke-miterlimit="22.9256" stroke-linecap="round" stroke-linejoin="round"/>
<path d="M49.3052 47.0142H35.5475V68.6099H49.3052V47.0142Z" stroke="#9494A8" stroke-width="1.4881" stroke-miterlimit="22.9256" stroke-linecap="round" stroke-linejoin="round"/>
<path d="M64.0598 47.0142H51.2991V68.6099H64.0598V47.0142Z" stroke="#9494A8" stroke-width="1.4881" stroke-miterlimit="22.9256" stroke-linecap="round" stroke-linejoin="round"/>
<path fill-rule="evenodd" clip-rule="evenodd" d="M8.43097 1.58862H61.4678C62.4647 3.45033 67.25 11.828 67.25 12.0142L2.84814 11.828L8.43097 1.58862V1.58862Z" stroke="#9494A8" stroke-width="2.97619" stroke-miterlimit="22.9256" stroke-linecap="round" stroke-linejoin="round"/>
<path d="M13.2163 4.3811L10.6243 8.66302" stroke="#9494A8" stroke-width="1.4881" stroke-miterlimit="22.9256" stroke-linecap="round" stroke-linejoin="round"/>
<path d="M19.9955 4.5675L18.9985 8.66325" stroke="#9494A8" stroke-width="1.4881" stroke-miterlimit="22.9256" stroke-linecap="round" stroke-linejoin="round"/>
<path d="M27.3727 4.5675L26.7745 8.66325" stroke="#9494A8" stroke-width="1.4881" stroke-miterlimit="22.9256" stroke-linecap="round" stroke-linejoin="round"/>
<path d="M34.9493 4.3811V8.66302" stroke="#9494A8" stroke-width="1.4881" stroke-miterlimit="22.9256" stroke-linecap="round" stroke-linejoin="round"/>
<path d="M49.9033 4.56727L50.9003 8.66302M56.6825 4.3811L59.2745 8.66302L56.6825 4.3811ZM34.9493 4.3811V8.66302V4.3811ZM42.526 4.56727L42.9248 8.66302L42.526 4.56727Z" stroke="#9494A8" stroke-width="1.4881" stroke-miterlimit="22.9256" stroke-linecap="round" stroke-linejoin="round"/>
</svg>
