<svg width="73" height="70" viewBox="0 0 73 70" fill="none" xmlns="http://www.w3.org/2000/svg">
<path fill-rule="evenodd" clip-rule="evenodd" d="M1.78223 46.8239H71.4597L63.879 68.4368H46.2984H8.55642L1.78223 46.8239Z" stroke="#9494A8" stroke-width="2.47191" stroke-miterlimit="22.9256" stroke-linecap="round" stroke-linejoin="round"/>
<path d="M18.8791 14.2432H5.33069V43.9206H18.8791V14.2432Z" stroke="#9494A8" stroke-width="1.1236" stroke-miterlimit="22.9256" stroke-linecap="round" stroke-linejoin="round"/>
<path d="M35.492 14.2432H20.8146V43.9206H35.492V14.2432Z" stroke="#9494A8" stroke-width="1.1236" stroke-miterlimit="22.9256" stroke-linecap="round" stroke-linejoin="round"/>
<path d="M52.266 14.2432H37.5886V43.9206H52.266V14.2432Z" stroke="#9494A8" stroke-width="1.1236" stroke-miterlimit="22.9256" stroke-linecap="round" stroke-linejoin="round"/>
<path d="M68.0726 14.2432H54.5242V43.9206H68.0726V14.2432Z" stroke="#9494A8" stroke-width="1.1236" stroke-miterlimit="22.9256" stroke-linecap="round" stroke-linejoin="round"/>
<path fill-rule="evenodd" clip-rule="evenodd" d="M1.78223 11.6626H71.4597V18.2755V46.9852H47.2661V46.8239H1.78223V11.6626Z" stroke="#9494A8" stroke-width="2.47191" stroke-miterlimit="22.9256" stroke-linecap="round" stroke-linejoin="round"/>
<path d="M13.7177 51.9851L16.7822 63.2754" stroke="#9494A8" stroke-width="1.1236" stroke-miterlimit="22.9256" stroke-linecap="round" stroke-linejoin="round"/>
<path d="M24.6855 51.6626L26.4597 63.1142" stroke="#9494A8" stroke-width="1.1236" stroke-miterlimit="22.9256" stroke-linecap="round" stroke-linejoin="round"/>
<path d="M35.9758 51.5012V63.2754" stroke="#9494A8" stroke-width="1.1236" stroke-miterlimit="22.9256" stroke-linecap="round" stroke-linejoin="round"/>
<path d="M58.3951 51.9851L55.1693 63.2754" stroke="#9494A8" stroke-width="1.1236" stroke-miterlimit="22.9256" stroke-linecap="round" stroke-linejoin="round"/>
<path d="M47.4274 51.6626L45.4919 63.1142" stroke="#9494A8" stroke-width="1.1236" stroke-miterlimit="22.9256" stroke-linecap="round" stroke-linejoin="round"/>
<path fill-rule="evenodd" clip-rule="evenodd" d="M7.91129 1.50122H65.3307C66.4597 3.4367 71.621 11.3399 71.621 11.6625L1.62097 11.5012L7.91129 1.50122V1.50122Z" stroke="#9494A8" stroke-width="2.47191" stroke-miterlimit="22.9256" stroke-linecap="round" stroke-linejoin="round"/>
<path d="M13.0726 4.24316L10.3307 8.43671" stroke="#9494A8" stroke-width="1.1236" stroke-miterlimit="22.9256" stroke-linecap="round" stroke-linejoin="round"/>
<path d="M20.492 4.40442L19.2017 8.27539" stroke="#9494A8" stroke-width="1.1236" stroke-miterlimit="22.9256" stroke-linecap="round" stroke-linejoin="round"/>
<path d="M28.3951 4.40442L27.9113 8.43668" stroke="#9494A8" stroke-width="1.1236" stroke-miterlimit="22.9256" stroke-linecap="round" stroke-linejoin="round"/>
<path d="M36.621 4.40442V8.43668" stroke="#9494A8" stroke-width="1.1236" stroke-miterlimit="22.9256" stroke-linecap="round" stroke-linejoin="round"/>
<path d="M52.75 4.40445L54.0403 8.27542M60.1694 4.24316L62.9113 8.43671L60.1694 4.24316ZM36.621 4.40445V8.43671V4.40445ZM44.8468 4.40445L45.3306 8.43671L44.8468 4.40445Z" stroke="#9494A8" stroke-width="1.1236" stroke-miterlimit="22.9256" stroke-linecap="round" stroke-linejoin="round"/>
<path fill-rule="evenodd" clip-rule="evenodd" d="M7.91129 1.50122H65.3307C66.4597 3.4367 71.621 11.3399 71.621 11.6625L1.62097 11.5012L7.91129 1.50122V1.50122Z" stroke="#9494A8" stroke-width="2.47191" stroke-miterlimit="22.9256" stroke-linecap="round" stroke-linejoin="round"/>
<path d="M13.0726 4.24316L10.3307 8.43671" stroke="#9494A8" stroke-width="1.1236" stroke-miterlimit="22.9256" stroke-linecap="round" stroke-linejoin="round"/>
<path d="M20.492 4.40442L19.2017 8.27539" stroke="#9494A8" stroke-width="1.1236" stroke-miterlimit="22.9256" stroke-linecap="round" stroke-linejoin="round"/>
<path d="M28.3951 4.40442L27.9113 8.43668" stroke="#9494A8" stroke-width="1.1236" stroke-miterlimit="22.9256" stroke-linecap="round" stroke-linejoin="round"/>
<path d="M36.621 4.40442V8.43668" stroke="#9494A8" stroke-width="1.1236" stroke-miterlimit="22.9256" stroke-linecap="round" stroke-linejoin="round"/>
<path d="M52.75 4.40445L54.0403 8.27542M60.1694 4.24316L62.9113 8.43671L60.1694 4.24316ZM36.621 4.40445V8.43671V4.40445ZM44.8468 4.40445L45.3306 8.43671L44.8468 4.40445Z" stroke="#9494A8" stroke-width="1.1236" stroke-miterlimit="22.9256" stroke-linecap="round" stroke-linejoin="round"/>
</svg>
