<svg width="69" height="77" viewBox="0 0 69 77" fill="none" xmlns="http://www.w3.org/2000/svg">
<path d="M17.9974 15.7916H5.46167V48.1369H17.9974V15.7916Z" stroke="#9494A8" stroke-width="1.3865" stroke-miterlimit="22.9256" stroke-linecap="round" stroke-linejoin="round"/>
<path d="M33.6283 15.7916H19.8545V48.1369H33.6283V15.7916Z" stroke="#9494A8" stroke-width="1.3865" stroke-miterlimit="22.9256" stroke-linecap="round" stroke-linejoin="round"/>
<path d="M49.2593 15.7916H35.4855V48.1369H49.2593V15.7916Z" stroke="#9494A8" stroke-width="1.3865" stroke-miterlimit="22.9256" stroke-linecap="round" stroke-linejoin="round"/>
<path d="M63.8068 15.7916H51.2711V48.1369H63.8068V15.7916Z" stroke="#9494A8" stroke-width="1.3865" stroke-miterlimit="22.9256" stroke-linecap="round" stroke-linejoin="round"/>
<path fill-rule="evenodd" clip-rule="evenodd" d="M2.05688 13.0059H67.0569V20.2797H66.9021V51.5416H44.4616V51.3868H2.05688V13.0059Z" stroke="#9494A8" stroke-width="2.77301" stroke-miterlimit="22.9256" stroke-linecap="round" stroke-linejoin="round"/>
<path d="M8.86646 58.3511V70.113" stroke="#9494A8" stroke-width="1.3865" stroke-miterlimit="22.9256" stroke-linecap="round" stroke-linejoin="round"/>
<path d="M16.1403 58.3511V70.113" stroke="#9494A8" stroke-width="1.3865" stroke-miterlimit="22.9256" stroke-linecap="round" stroke-linejoin="round"/>
<path d="M22.7949 58.3511V70.113" stroke="#9494A8" stroke-width="1.3865" stroke-miterlimit="22.9256" stroke-linecap="round" stroke-linejoin="round"/>
<path d="M29.9141 58.3511V70.113" stroke="#9494A8" stroke-width="1.3865" stroke-miterlimit="22.9256" stroke-linecap="round" stroke-linejoin="round"/>
<path d="M36.7236 58.3511V70.113" stroke="#9494A8" stroke-width="1.3865" stroke-miterlimit="22.9256" stroke-linecap="round" stroke-linejoin="round"/>
<path d="M43.8427 58.3511V70.113" stroke="#9494A8" stroke-width="1.3865" stroke-miterlimit="22.9256" stroke-linecap="round" stroke-linejoin="round"/>
<path d="M50.6521 58.3511V70.113" stroke="#9494A8" stroke-width="1.3865" stroke-miterlimit="22.9256" stroke-linecap="round" stroke-linejoin="round"/>
<path d="M57.9259 58.3511V70.113" stroke="#9494A8" stroke-width="1.3865" stroke-miterlimit="22.9256" stroke-linecap="round" stroke-linejoin="round"/>
<path fill-rule="evenodd" clip-rule="evenodd" d="M7.78307 1.55347H61.1759L67.0569 13.1606V15.6368H66.9021V75.2201H44.4616V75.0654H2.05688V12.6963L7.78307 1.55347Z" stroke="#9494A8" stroke-width="2.77301" stroke-miterlimit="22.9256" stroke-linecap="round" stroke-linejoin="round"/>
<path fill-rule="evenodd" clip-rule="evenodd" d="M10.2593 3.56543H20.3189L18.6165 10.6845H6.54504L10.2593 3.56543V3.56543ZM21.8665 3.56543H33.6284V10.6845H20.3189L21.8665 3.56543Z" stroke="#9494A8" stroke-width="1.3865" stroke-miterlimit="22.9256" stroke-linecap="round" stroke-linejoin="round"/>
<path fill-rule="evenodd" clip-rule="evenodd" d="M58.8544 3.56543H48.6401L50.3425 10.6845H62.5687L58.8544 3.56543V3.56543ZM47.0925 3.56543H35.3306V10.6845H48.6401L47.0925 3.56543Z" stroke="#9494A8" stroke-width="1.3865" stroke-miterlimit="22.9256" stroke-linecap="round" stroke-linejoin="round"/>
</svg>
