<svg width="69" height="71" viewBox="0 0 69 71" fill="none" xmlns="http://www.w3.org/2000/svg">
<path d="M67.2676 1.92688H2.26758V69.5373H67.2676V1.92688Z" stroke="#9494A8" stroke-width="2.73438" stroke-miterlimit="22.9256" stroke-linecap="round" stroke-linejoin="round"/>
<path d="M45.3399 42.1277H2.26758V69.5373H45.3399V42.1277Z" stroke="#9494A8" stroke-width="2.73438" stroke-miterlimit="22.9256" stroke-linecap="round" stroke-linejoin="round"/>
<path d="M47.1672 38.0815H2.26758V42.1277H47.1672V38.0815Z" stroke="#9494A8" stroke-width="2.73438" stroke-miterlimit="22.9256" stroke-linecap="round" stroke-linejoin="round"/>
<path fill-rule="evenodd" clip-rule="evenodd" d="M2.26758 1.92688H67.2676L62.3077 11.455H8.14107L2.26758 1.92688Z" stroke="#9494A8" stroke-width="1.36719" stroke-miterlimit="22.9256" stroke-linecap="round" stroke-linejoin="round"/>
<path d="M8.14111 11.455V38.0815" stroke="#9494A8" stroke-width="1.36719" stroke-miterlimit="22.9256" stroke-linecap="round" stroke-linejoin="round"/>
<path d="M62.3077 11.455V69.5373" stroke="#9494A8" stroke-width="1.36719" stroke-miterlimit="22.9256" stroke-linecap="round" stroke-linejoin="round"/>
<path d="M45.3398 44.8687H62.3077" stroke="#9494A8" stroke-width="1.36719" stroke-miterlimit="22.9256" stroke-linecap="round" stroke-linejoin="round"/>
<path d="M21.1933 14.457H10.4905V38.0815H21.1933V14.457Z" stroke="#9494A8" stroke-width="1.36719" stroke-miterlimit="22.9256" stroke-linecap="round" stroke-linejoin="round"/>
<path d="M34.2454 14.457H23.5426V38.0815H34.2454V14.457Z" stroke="#9494A8" stroke-width="1.36719" stroke-miterlimit="22.9256" stroke-linecap="round" stroke-linejoin="round"/>
<path d="M47.0367 14.457H36.3339V38.0815H47.0367V14.457Z" stroke="#9494A8" stroke-width="1.36719" stroke-miterlimit="22.9256" stroke-linecap="round" stroke-linejoin="round"/>
<path d="M59.8278 14.457H49.125V44.8687H59.8278V14.457Z" stroke="#9494A8" stroke-width="1.36719" stroke-miterlimit="22.9256" stroke-linecap="round" stroke-linejoin="round"/>
<path d="M46.9061 40.3004V44.8687" stroke="#9494A8" stroke-width="1.36719" stroke-miterlimit="22.9256" stroke-linecap="round" stroke-linejoin="round"/>
<path d="M24.7174 42.1277L2.92017 69.5373" stroke="#9494A8" stroke-width="1.36719" stroke-miterlimit="22.9256" stroke-linecap="round" stroke-linejoin="round"/>
<path d="M34.7676 42.1277L12.9705 69.5373" stroke="#9494A8" stroke-width="1.36719" stroke-miterlimit="22.9256" stroke-linecap="round" stroke-linejoin="round"/>
<path d="M45.4704 42.1277L23.6732 69.5373" stroke="#9494A8" stroke-width="1.36719" stroke-miterlimit="22.9256" stroke-linecap="round" stroke-linejoin="round"/>
<path d="M45.3399 55.8325L34.5066 69.5373" stroke="#9494A8" stroke-width="1.36719" stroke-miterlimit="22.9256" stroke-linecap="round" stroke-linejoin="round"/>
<path d="M15.1893 42.1277L2.26758 58.4429" stroke="#9494A8" stroke-width="1.36719" stroke-miterlimit="22.9256" stroke-linecap="round" stroke-linejoin="round"/>
</svg>
