<svg width="71" height="80" viewBox="0 0 71 80" fill="none" xmlns="http://www.w3.org/2000/svg">
<path d="M18.4608 15.7654H5.03595V49.8438H18.4608V15.7654Z" stroke="#EF7F1A" stroke-width="1.03268" stroke-miterlimit="22.9256" stroke-linecap="round" stroke-linejoin="round"/>
<path d="M34.4673 15.7654H20.0098V49.8438H34.4673V15.7654Z" stroke="#EF7F1A" stroke-width="1.03268" stroke-miterlimit="22.9256" stroke-linecap="round" stroke-linejoin="round"/>
<path d="M50.9902 15.7654H36.5327V49.8438H50.9902V15.7654Z" stroke="#EF7F1A" stroke-width="1.03268" stroke-miterlimit="22.9256" stroke-linecap="round" stroke-linejoin="round"/>
<path d="M66.4804 15.7654H53.0556V49.8438H66.4804V15.7654Z" stroke="#EF7F1A" stroke-width="1.03268" stroke-miterlimit="22.9256" stroke-linecap="round" stroke-linejoin="round"/>
<path fill-rule="evenodd" clip-rule="evenodd" d="M1.42157 12.6672H69.5784V20.4123H69.0621V53.4581H45.8268V52.9417H1.42157V12.6672Z" stroke="#EF7F1A" stroke-width="2.06536" stroke-miterlimit="22.9256" stroke-linecap="round" stroke-linejoin="round"/>
<path d="M8.65033 60.1707V72.5628" stroke="#EF7F1A" stroke-width="1.03268" stroke-miterlimit="22.9256" stroke-linecap="round" stroke-linejoin="round"/>
<path d="M15.8791 60.1707V72.5628" stroke="#EF7F1A" stroke-width="1.03268" stroke-miterlimit="22.9256" stroke-linecap="round" stroke-linejoin="round"/>
<path d="M23.1078 60.1707V72.5628" stroke="#EF7F1A" stroke-width="1.03268" stroke-miterlimit="22.9256" stroke-linecap="round" stroke-linejoin="round"/>
<path d="M30.3366 60.1707V72.5628" stroke="#EF7F1A" stroke-width="1.03268" stroke-miterlimit="22.9256" stroke-linecap="round" stroke-linejoin="round"/>
<path d="M37.5654 60.1707V72.5628" stroke="#EF7F1A" stroke-width="1.03268" stroke-miterlimit="22.9256" stroke-linecap="round" stroke-linejoin="round"/>
<path d="M45.3105 60.1707V72.5628" stroke="#EF7F1A" stroke-width="1.03268" stroke-miterlimit="22.9256" stroke-linecap="round" stroke-linejoin="round"/>
<path d="M52.0229 60.1707V72.5628" stroke="#EF7F1A" stroke-width="1.03268" stroke-miterlimit="22.9256" stroke-linecap="round" stroke-linejoin="round"/>
<path d="M59.768 60.1707V72.5628" stroke="#EF7F1A" stroke-width="1.03268" stroke-miterlimit="22.9256" stroke-linecap="round" stroke-linejoin="round"/>
<path fill-rule="evenodd" clip-rule="evenodd" d="M69.0621 12.6672L69.5784 13.1836V15.7653H69.0621V78.2424H45.8268V77.7261H1.42157V12.6672H69.0621Z" stroke="#EF7F1A" stroke-width="2.06536" stroke-miterlimit="22.9256" stroke-linecap="round" stroke-linejoin="round"/>
<path fill-rule="evenodd" clip-rule="evenodd" d="M7.61765 1.30786H63.3824C64.415 3.37322 69.0621 12.6673 69.0621 12.6673H1.42157L7.61765 1.30786V1.30786Z" stroke="#EF7F1A" stroke-width="2.06536" stroke-miterlimit="22.9256" stroke-linecap="round" stroke-linejoin="round"/>
<path d="M12.2647 4.40601L9.68301 9.05306" stroke="#EF7F1A" stroke-width="1.03268" stroke-miterlimit="22.9256" stroke-linecap="round" stroke-linejoin="round"/>
<path d="M19.4935 4.40601L18.4608 9.05306" stroke="#EF7F1A" stroke-width="1.03268" stroke-miterlimit="22.9256" stroke-linecap="round" stroke-linejoin="round"/>
<path d="M27.2386 4.40601L26.7222 9.05306" stroke="#EF7F1A" stroke-width="1.03268" stroke-miterlimit="22.9256" stroke-linecap="round" stroke-linejoin="round"/>
<path d="M35.5 4.40601V9.05306" stroke="#EF7F1A" stroke-width="1.03268" stroke-miterlimit="22.9256" stroke-linecap="round" stroke-linejoin="round"/>
<path d="M50.9902 4.40601L52.0229 9.05306M58.219 4.40601L60.8007 9.05306L58.219 4.40601ZM35.5 4.40601V9.05306V4.40601ZM43.2451 4.40601L43.7614 9.05306L43.2451 4.40601Z" stroke="#EF7F1A" stroke-width="1.03268" stroke-miterlimit="22.9256" stroke-linecap="round" stroke-linejoin="round"/>
</svg>
