<svg width="70" height="75" viewBox="0 0 70 75" fill="none" xmlns="http://www.w3.org/2000/svg">
<path d="M4.77273 0.424316H66.2879C66.2879 0.424316 66.8182 0.954619 66.8182 1.48492V66.7122C66.8182 67.2425 66.2879 67.2425 66.2879 67.2425H4.77273C4.24243 67.2425 4.24243 67.2425 4.24243 66.7122V56.1061H5.83334V65.6516H65.2273V2.54553H5.83334V56.1061H4.24243V1.48492C4.24243 0.954619 4.24243 0.424316 4.77273 0.424316V0.424316Z" fill="#EF7F1A"/>
<path d="M8.48487 4.66675H62.5758L63.1061 5.19705V62.4698C63.1061 63.0001 62.5758 63.0001 62.5758 63.0001H8.48487C8.48487 63.0001 7.95457 63.0001 7.95457 62.4698V5.19705L8.48487 4.66675ZM62.0455 5.72735H9.01517V55.0455V56.6364V57.6971V61.9395H62.0455V5.72735ZM11.1364 7.31826C82.197 7.31826 -22.2727 7.31826 11.1364 7.31826V7.31826Z" fill="#EF7F1A"/>
<path fill-rule="evenodd" clip-rule="evenodd" d="M12.197 8.90918H31.8182V58.7577H12.197V55.0455V36.4849V8.90918Z" stroke="#EF7F1A" stroke-width="1.06061" stroke-miterlimit="22.9256" stroke-linecap="round" stroke-linejoin="round"/>
<path fill-rule="evenodd" clip-rule="evenodd" d="M33.4091 7.84863H59.9243V60.3486H33.4091V7.84863V7.84863ZM36.0606 9.96985H57.8031V57.6971H36.0606V33.8335H35.5303C35 33.8335 34.4697 33.3032 34.4697 32.7729C34.4697 32.2426 35 31.7123 35.5303 31.7123H36.0606V9.96985V9.96985Z" stroke="#EF7F1A" stroke-width="1.06061" stroke-miterlimit="22.9256" stroke-linecap="round" stroke-linejoin="round"/>
<path d="M68.9394 66.7122H1.06061V73.0758H68.9394V66.7122Z" stroke="#EF7F1A" stroke-width="2.12121" stroke-miterlimit="22.9256" stroke-linecap="round" stroke-linejoin="round"/>
<path d="M41.894 31.7122H35.5303C34.9446 31.7122 34.4697 32.0683 34.4697 32.5076C34.4697 32.9469 34.9446 33.3031 35.5303 33.3031H41.894C42.4797 33.3031 42.9546 32.9469 42.9546 32.5076C42.9546 32.0683 42.4797 31.7122 41.894 31.7122Z" stroke="#EF7F1A" stroke-width="1.06061" stroke-miterlimit="22.9256" stroke-linecap="round" stroke-linejoin="round"/>
</svg>
