<svg width="96" height="81" viewBox="0 0 96 81" fill="none" xmlns="http://www.w3.org/2000/svg">
<path d="M24.4348 0H90.9565C91.3913 0 91.8261 0.434783 91.8261 0.869565V72.1739C91.8261 72.6087 91.3913 73.0435 90.9565 73.0435H24.4348C24 73.0435 23.5652 72.6087 23.5652 72.1739V60.8696H25.3043V70.8696H90.0869V2.17391H25.3043V39.1304H23.5652V0.869565C23.5652 0.434783 24 0 24.4348 0V0Z" fill="#EF7F1A"/>
<path fill-rule="evenodd" clip-rule="evenodd" d="M28.3478 5.21729H87.0434V67.826H28.3478V60.8695H31.3913V64.7825H53.1304V8.26076H31.3913V39.1303H28.3478V5.21729Z" stroke="#EF7F1A" stroke-width="0.869565" stroke-miterlimit="22.9256" stroke-linecap="round" stroke-linejoin="round"/>
<path fill-rule="evenodd" clip-rule="evenodd" d="M31.3913 8.26099H53.1304V64.7827H31.3913V60.8697H44.8695C47.0434 60.8697 49.2174 58.6958 49.2174 56.0871V43.4784C49.2174 41.3045 47.0434 39.1306 44.8695 39.1306H31.3913V8.26099V8.26099Z" stroke="#EF7F1A" stroke-width="0.869565" stroke-miterlimit="22.9256" stroke-linecap="round" stroke-linejoin="round"/>
<path fill-rule="evenodd" clip-rule="evenodd" d="M55.7391 6.52173H85.7391V66.5217H55.7391V6.52173V6.52173ZM58.3478 9.56521H82.6956V63.4783H58.3478V36.0869H57.4782C57.0435 36.0869 56.6087 35.6522 56.6087 35.2174C56.6087 34.7826 57.0435 34.3478 57.4782 34.3478H58.3478V9.56521V9.56521Z" stroke="#EF7F1A" stroke-width="0.869565" stroke-miterlimit="22.9256" stroke-linecap="round" stroke-linejoin="round"/>
<path d="M94 72.1738H20.0869V79.1304H94V72.1738Z" stroke="#EF7F1A" stroke-width="2.17391" stroke-miterlimit="22.9256" stroke-linecap="round" stroke-linejoin="round"/>
<path d="M61.3913 34.3479H56.6087C56.1284 34.3479 55.7391 34.7372 55.7391 35.2175V35.6522C55.7391 36.1325 56.1284 36.5218 56.6087 36.5218H61.3913C61.8715 36.5218 62.2608 36.1325 62.2608 35.6522V35.2175C62.2608 34.7372 61.8715 34.3479 61.3913 34.3479Z" stroke="#EF7F1A" stroke-width="0.869565" stroke-miterlimit="22.9256" stroke-linecap="round" stroke-linejoin="round"/>
<path fill-rule="evenodd" clip-rule="evenodd" d="M12.6956 39.1304H44.8695C47.0434 39.1304 49.2174 41.3043 49.2174 43.4782V56.0869C49.2174 58.6956 47.0434 60.8695 44.8695 60.8695H12.6956C10.9565 60.8695 9.21735 59.1304 8.78257 57.3912C4.86953 56.9565 1.82605 53.913 1.82605 49.9999C1.82605 46.5217 4.86953 43.0434 8.78257 42.6086C9.21735 40.8695 10.9565 39.1304 12.6956 39.1304V39.1304Z" stroke="#EF7F1A" stroke-width="2.17391" stroke-miterlimit="22.9256"/>
<path d="M8.78259 52.6087C10.2233 52.6087 11.3913 51.4408 11.3913 50.0001C11.3913 48.5593 10.2233 47.3914 8.78259 47.3914C7.34184 47.3914 6.17389 48.5593 6.17389 50.0001C6.17389 51.4408 7.34184 52.6087 8.78259 52.6087Z" stroke="#EF7F1A" stroke-width="0.869565" stroke-miterlimit="22.9256"/>
<path d="M36.6087 48.6956H32.6956V56.5216H36.6087V48.6956Z" stroke="#EF7F1A" stroke-width="0.869565" stroke-miterlimit="22.9256"/>
<path d="M32.6956 49.5652C31.8261 49.1304 30.5217 48.2608 30.0869 47.8261C29.6521 46.9565 29.2174 46.5217 29.2174 46.0869C29.2174 45.6521 28.7826 45.2174 28.7826 44.7826C28.7826 44.3478 28.7826 43.913 28.7826 43.4782C28.3478 43.0435 28.3478 43.0435 28.3478 43.0435C27.913 43.0435 27.913 43.0435 27.4782 43.0435C27.4782 43.0435 27.0434 43.0435 27.0434 43.4782C26.6087 43.4782 26.6087 43.913 26.6087 44.7826C26.6087 45.2174 26.6087 46.0869 26.6087 46.5217C26.6087 46.9565 26.6087 47.8261 27.0434 48.2608C27.0434 48.6956 27.4782 48.6956 27.4782 48.6956C27.4782 48.6956 27.4782 48.6956 26.6087 48.6956C25.7391 48.6956 24 48.6956 23.1304 49.1304C22.2608 49.1304 22.2608 49.1304 22.2608 49.1304C22.2608 49.1304 21.826 49.5652 21.826 50V50.4348C21.826 50.8695 22.2608 50.8695 22.2608 51.3043V51.7391V52.1739C22.2608 52.6087 22.6956 52.6087 22.6956 53.0435H23.1304C23.1304 53.0435 23.1304 53.0435 22.6956 53.4782C22.6956 53.4782 22.6956 53.4782 22.6956 53.913C22.6956 54.3478 22.6956 54.3478 23.1304 54.7826L23.5652 55.2174V55.6522C23.5652 56.0869 23.5652 56.0869 24 56.5217C24 56.5217 24.4347 56.5217 25.3043 56.9565C26.6087 56.9565 28.3478 56.9565 29.6521 56.5217C30.9565 56.5217 31.8261 56.0869 32.6956 55.6522" stroke="#EF7F1A" stroke-width="0.869565" stroke-miterlimit="22.9256"/>
<path d="M9.65215 52.1739C9.65215 51.7391 9.65215 50.8695 9.21737 50.4348C8.78258 50 7.47824 50 6.17389 50.8695C4.43476 51.7391 3.13041 53.913 3.13041 55.6522C2.69563 57.8261 3.99998 60.4348 5.73911 62.1739C7.91302 63.4782 10.9565 64.7826 13.1304 65.6522C15.7391 66.5217 17.4782 67.3913 18.3478 68.2608C19.6521 69.5652 19.6521 70.8695 20.0869 72.1739" stroke="#EF7F1A" stroke-width="0.869565" stroke-miterlimit="22.9256"/>
<path d="M12.6956 60.8696C14.4347 62.174 15.7391 63.9131 16.6087 65.2175C17.913 66.5218 19.2174 67.3914 19.6521 68.2609C20.0869 69.5653 20.0869 70.8696 20.0869 72.174" stroke="#EF7F1A" stroke-width="0.869565" stroke-miterlimit="22.9256"/>
</svg>
